<svg width="51" height="48" viewBox="0 0 51 48" fill="none" xmlns="http://www.w3.org/2000/svg">
<rect x="0.5" width="50" height="48" rx="24" fill="#8F6A44"/>
<g clip-path="url(#clip0_633_24)">
<path d="M36 24C36.0006 24.2546 35.9353 24.5051 35.8105 24.7271C35.6856 24.949 35.5055 25.1349 35.2875 25.2666L21.78 33.5297C21.5523 33.6691 21.2914 33.7453 21.0244 33.7502C20.7575 33.7552 20.494 33.6887 20.2613 33.5578C20.0307 33.4289 19.8387 33.241 19.7049 33.0132C19.5711 32.7855 19.5004 32.5263 19.5 32.2622V15.7378C19.5004 15.4737 19.5711 15.2145 19.7049 14.9868C19.8387 14.759 20.0307 14.5711 20.2613 14.4422C20.494 14.3113 20.7575 14.2448 21.0244 14.2498C21.2914 14.2547 21.5523 14.3309 21.78 14.4703L35.2875 22.7334C35.5055 22.8651 35.6856 23.051 35.8105 23.2729C35.9353 23.4949 36.0006 23.7453 36 24Z" fill="white"/>
</g>
<defs>
<clipPath id="clip0_633_24">
<rect width="24" height="24" fill="white" transform="translate(13.5 12)"/>
</clipPath>
</defs>
</svg>
