<svg width="87" height="87" viewBox="0 0 87 87" fill="none" xmlns="http://www.w3.org/2000/svg">
<rect width="87" height="87" rx="43.5" fill="#8F6A44" fill-opacity="0.8"/>
<path d="M18.3901 40H15.3381V29.976H18.3621C21.3861 29.976 23.4021 31.992 23.4021 34.988C23.4021 37.984 21.4001 40 18.3901 40ZM18.3201 30.9H16.3461V39.076H18.3481C20.7981 39.076 22.3661 37.48 22.3661 34.988C22.3661 32.482 20.7981 30.9 18.3201 30.9ZM26.2309 40H25.2229V29.976H28.9609C30.9909 29.976 32.2229 31.096 32.2229 32.874C32.2229 34.316 31.4669 35.324 30.1789 35.674L32.3209 40H31.2009L29.1569 35.842H26.2309V40ZM26.2309 30.886V34.932H28.9889C30.3749 34.932 31.1869 34.176 31.1869 32.902C31.1869 31.6 30.3329 30.886 28.9609 30.886H26.2309ZM34.178 40H33.156L36.838 29.976H38.084L41.808 40H40.758L39.778 37.34H35.158L34.178 40ZM37.328 31.39L35.466 36.458H39.456L37.58 31.39C37.538 31.25 37.468 31.082 37.454 30.984C37.44 31.068 37.384 31.25 37.328 31.39ZM47.0049 30.76C44.6949 30.76 43.2389 32.468 43.2389 35.03C43.2389 37.634 44.7789 39.216 47.0329 39.216C48.7129 39.216 50.3509 38.404 50.3509 35.996V35.478H46.7249V34.582H51.3029V40.014H50.5049L50.4069 38.418C49.8749 39.412 48.6149 40.168 46.9909 40.168C44.1489 40.168 42.1889 38.124 42.1889 35.03C42.1889 31.964 44.1489 29.808 47.0189 29.808C49.1329 29.808 50.7709 31.012 51.1629 32.832H50.0709C49.6509 31.46 48.4749 30.76 47.0049 30.76ZM56.1377 30.9V29.976H63.3197V30.9H60.2257V40H59.2177V30.9H56.1377ZM73.2701 34.988C73.2701 38.026 71.2961 40.168 68.4961 40.168C65.6821 40.168 63.7221 38.026 63.7221 34.988C63.7221 31.95 65.6961 29.794 68.4961 29.794C71.3101 29.794 73.2701 31.936 73.2701 34.988ZM72.2341 34.988C72.2341 32.482 70.7081 30.774 68.4961 30.774C66.2841 30.774 64.7721 32.482 64.7721 34.988C64.7721 37.494 66.2841 39.202 68.4961 39.202C70.7081 39.202 72.2341 37.48 72.2341 34.988ZM21.4321 59H20.4241V48.976H24.1621C26.1921 48.976 27.4241 50.096 27.4241 51.874C27.4241 53.316 26.6681 54.324 25.3801 54.674L27.5221 59H26.4021L24.3581 54.842H21.4321V59ZM21.4321 49.886V53.932H24.1901C25.5761 53.932 26.3881 53.176 26.3881 51.902C26.3881 50.6 25.5341 49.886 24.1621 49.886H21.4321ZM38.2564 53.988C38.2564 57.026 36.2824 59.168 33.4824 59.168C30.6684 59.168 28.7084 57.026 28.7084 53.988C28.7084 50.95 30.6824 48.794 33.4824 48.794C36.2964 48.794 38.2564 50.936 38.2564 53.988ZM37.2204 53.988C37.2204 51.482 35.6944 49.774 33.4824 49.774C31.2704 49.774 29.7584 51.482 29.7584 53.988C29.7584 56.494 31.2704 58.202 33.4824 58.202C35.6944 58.202 37.2204 56.48 37.2204 53.988ZM38.6787 49.9V48.976H45.8607V49.9H42.7667V59H41.7587V49.9H38.6787ZM46.3323 59H45.3103L48.9923 48.976H50.2383L53.9623 59H52.9123L51.9323 56.34H47.3123L46.3323 59ZM49.4823 50.39L47.6203 55.458H51.6103L49.7343 50.39C49.6923 50.25 49.6223 50.082 49.6083 49.984C49.5943 50.068 49.5383 50.25 49.4823 50.39ZM53.3897 49.9V48.976H60.5717V49.9H57.4777V59H56.4697V49.9H53.3897ZM67.9652 59H61.9592V48.976H67.9512V49.9H62.9672V53.512H67.4892V54.422H62.9672V58.076H67.9652V59Z" fill="#F9F6EE"/>
</svg>
